<?xml version="1.0" encoding="utf-8"?>
<!-- Generator: Adobe Illustrator 19.1.0, SVG Export Plug-In . SVG Version: 6.00 Build 0)  -->
<!DOCTYPE svg PUBLIC "-//W3C//DTD SVG 1.1//EN" "http://www.w3.org/Graphics/SVG/1.1/DTD/svg11.dtd">
<svg version="1.1" id="Layer_1" xmlns="http://www.w3.org/2000/svg" xmlns:xlink="http://www.w3.org/1999/xlink" x="0px" y="0px"
	 viewBox="-118.8 497 78 100.1" style="enable-background:new -118.8 497 78 100.1;" xml:space="preserve">
<style type="text/css">
	.st0{fill:#00AEEF;}
</style>
<g>
	<g>
		<path class="st0" d="M-84.6,547c0-16.6-8-31.5-20.3-40.9c-0.2-0.2-0.5-0.2-0.7,0.1l-3.8,3.8c-0.2,0.2-0.2,0.6,0.1,0.8
			c11.2,8.2,18.4,21.4,18.4,36.2c0,14.8-7.3,28.1-18.4,36.2c-0.3,0.2-0.3,0.6-0.1,0.8l3.8,3.8c0.2,0.2,0.5,0.2,0.7,0.1
			C-92.6,578.5-84.6,563.6-84.6,547z"/>
		<path class="st0" d="M-97.3,547c0-13.2-6.6-24.9-16.8-31.9c-0.2-0.2-0.5-0.1-0.7,0.1l-3.8,3.8c-0.3,0.3-0.2,0.6,0.1,0.8
			c8.9,5.8,14.8,15.8,14.8,27.2c0,11.4-5.9,21.4-14.8,27.2c-0.3,0.2-0.3,0.6-0.1,0.8l3.8,3.8c0.2,0.2,0.5,0.2,0.7,0.1
			C-103.9,571.9-97.3,560.2-97.3,547z"/>
	</g>
	<g>
		<path class="st0" d="M-65.7,547c0-16.6,8-31.5,20.3-40.9c0.2-0.2,0.5-0.2,0.7,0.1l3.8,3.8c0.2,0.2,0.2,0.6-0.1,0.8
			c-11.2,8.2-18.4,21.4-18.4,36.2c0,14.8,7.3,28.1,18.4,36.2c0.3,0.2,0.3,0.6,0.1,0.8l-3.8,3.8c-0.2,0.2-0.5,0.2-0.7,0.1
			C-57.6,578.5-65.7,563.6-65.7,547z"/>
	</g>
	<path class="st0" d="M-72,547c0-18.4,8.6-34.7,22-45.3c0.3-0.2,0.3-0.6,0.1-0.8l-3.7-3.7c-0.2-0.2-0.5-0.2-0.7-0.1
		c-9.6,7.7-16.9,18.1-20.8,30c-3.9-11.9-11.2-22.3-20.8-30c-0.2-0.2-0.5-0.2-0.7,0.1l-3.7,3.7c-0.2,0.2-0.2,0.6,0.1,0.8
		c13.4,10.5,22,26.9,22,45.3c0,18.4-8.6,34.7-22,45.3c-0.3,0.2-0.3,0.6-0.1,0.8l3.7,3.7c0.2,0.2,0.5,0.2,0.7,0.1
		c9.6-7.7,16.9-18.1,20.8-30c3.9,11.9,11.2,22.3,20.8,30c0.2,0.2,0.5,0.2,0.7-0.1l3.7-3.7c0.2-0.2,0.2-0.6-0.1-0.8
		C-63.3,581.7-72,565.3-72,547z"/>
</g>
</svg>
