<?xml version="1.0" encoding="utf-8"?>
<!-- Generator: Adobe Illustrator 19.1.0, SVG Export Plug-In . SVG Version: 6.00 Build 0)  -->
<!DOCTYPE svg PUBLIC "-//W3C//DTD SVG 1.1//EN" "http://www.w3.org/Graphics/SVG/1.1/DTD/svg11.dtd">
<svg version="1.1" id="Layer_1" xmlns="http://www.w3.org/2000/svg" xmlns:xlink="http://www.w3.org/1999/xlink" x="0px" y="0px"
	 viewBox="0 399.5 300 174.3" enable-background="new 0 399.5 300 174.3" xml:space="preserve">
<g>
	<path d="M42.1,548.1H6.3c0.7,14.6,7.5,20.6,16.7,20.6c5.7,0,9.5-1.8,14.1-5c0.2-0.1,0.5-0.1,0.6,0.1l2.2,3.1
		c0.1,0.2,0.1,0.5-0.1,0.6c-4.9,3.9-10.3,6.3-17.2,6.3C8.6,573.8,0,563.5,0,546.3c0-17.1,8.3-28.4,21.4-28.4
		c14,0,20.9,10.2,20.9,25.9C42.4,545.5,42.3,547.1,42.1,548.1z M36.5,542c0-11.7-4.7-19.2-14.8-19.2c-8.4,0-14.7,6.2-15.3,20.7h30.2
		L36.5,542L36.5,542z"/>
	<path d="M88.1,523.7l-2.5,3.3c-0.1,0.2-0.5,0.2-0.6,0.1c-3.4-2.7-6.8-4-11.5-4c-9.8,0-16.6,7.6-16.6,23.1
		c0,15.4,6.8,22.5,16.5,22.5c4.9,0,8.4-1.5,11.9-4.3c0.2-0.1,0.5-0.1,0.6,0.1l2.5,3.4c0.1,0.2,0.1,0.5-0.1,0.6
		c-4.2,3.4-9.2,5.5-15,5.5c-13.7,0-22.8-10.2-22.8-27.6c0-17.2,8.9-28.3,22.7-28.3c5.9,0,10.5,1.5,14.8,5.1
		C88.3,523.2,88.3,523.5,88.1,523.7z"/>
	<path d="M137,534.3v37.9c0,0.3-0.2,0.5-0.5,0.5h-5c-0.3,0-0.5-0.2-0.5-0.5v-37.1c0-8.7-3.7-12.4-10.2-12.4
		c-7.3,0-12.2,4.5-16.6,11.1v38.4c0,0.3-0.2,0.5-0.5,0.5h-5c-0.3,0-0.5-0.2-0.5-0.5v-74.5c0-0.2,0.2-0.4,0.4-0.5l5-0.6
		c0.3,0,0.5,0.2,0.5,0.5v30.9c4.3-6.1,10-10,17.8-10C131.7,517.9,137,524.1,137,534.3z"/>
	<path d="M194.8,545.7c0,17.3-8.6,28.1-22.8,28.1c-14.2,0-22.7-10.7-22.7-27.9c0-17.2,8.7-28,22.8-28
		C186.4,517.9,194.8,528.2,194.8,545.7z M155.7,545.9c0,15.1,6.1,22.8,16.3,22.8s16.5-7.7,16.5-23.1c0-15.1-6.1-22.8-16.4-22.8
		C161.9,522.9,155.7,530.5,155.7,545.9z"/>
	<path d="M245.4,572.7h-4.3c-0.2,0-0.5-0.2-0.5-0.4l-0.7-7.8c-3.2,5.3-8.3,9.3-16.1,9.3c-12.5,0-20.1-10.7-20.1-27.7
		c0-16.5,7.9-28.2,21-28.2c7.3,0,12,3.5,15.1,7.3V497c0-0.3,0.2-0.5,0.5-0.5l5,0.6c0.2,0,0.4,0.2,0.4,0.5v74.6
		C245.9,572.5,245.7,572.7,245.4,572.7z M239.9,558.9v-28c-3.2-4.5-7.5-8.1-14.1-8.1c-9.4,0-15.8,8.1-15.7,23.2
		c0,15,5.6,22.9,14.7,22.9C231.9,568.9,236.2,565.3,239.9,558.9z"/>
	<path d="M299.8,548.1h-35.8c0.7,14.6,7.5,20.6,16.7,20.6c5.7,0,9.5-1.8,14.1-5c0.2-0.1,0.5-0.1,0.6,0.1l2.2,3.1
		c0.1,0.2,0.1,0.5-0.1,0.6c-4.9,3.9-10.3,6.3-17.2,6.3c-14.2,0-22.8-10.3-22.8-27.5c0-17.1,8.3-28.4,21.4-28.4
		c14,0,20.9,10.2,20.9,25.9C300,545.5,299.9,547.1,299.8,548.1z M294.2,542c0-11.7-4.7-19.2-14.8-19.2c-8.4,0-14.7,6.2-15.3,20.7
		h30.2L294.2,542L294.2,542z"/>
</g>
<g>
	<g>
		<path fill="#00AEEF" d="M145.7,443.4c0-14.6-7-27.7-17.9-35.9c-0.2-0.1-0.5-0.1-0.6,0l-3.3,3.3c-0.2,0.2-0.2,0.5,0,0.7
			c9.8,7.2,16.2,18.8,16.2,31.8c0,13-6.4,24.6-16.1,31.8c-0.2,0.2-0.3,0.5,0,0.7l3.3,3.3c0.2,0.2,0.4,0.2,0.6,0
			C138.7,471.1,145.7,458,145.7,443.4z"/>
		<path fill="#00AEEF" d="M134.6,443.4c0-11.6-5.8-21.8-14.7-28c-0.2-0.1-0.4-0.1-0.6,0l-3.3,3.3c-0.2,0.2-0.2,0.6,0.1,0.7
			c7.8,5.1,13,13.9,13,23.9s-5.2,18.8-13,23.9c-0.2,0.1-0.3,0.5-0.1,0.7l3.3,3.3c0.1,0.1,0.4,0.2,0.6,0
			C128.7,465.2,134.6,455,134.6,443.4z"/>
	</g>
	<g>
		<path fill="#00AEEF" d="M162.3,443.4c0-14.6,7-27.7,17.9-35.9c0.2-0.1,0.5-0.1,0.6,0l3.3,3.3c0.2,0.2,0.2,0.5,0,0.7
			c-9.8,7.2-16.2,18.8-16.2,31.8c0,13,6.4,24.6,16.1,31.8c0.2,0.2,0.3,0.5,0,0.7l-3.3,3.3c-0.2,0.2-0.4,0.2-0.6,0
			C169.3,471.1,162.3,458,162.3,443.4z"/>
	</g>
	<path fill="#00AEEF" d="M156.8,443.4c0-16.1,7.6-30.5,19.3-39.8c0.2-0.2,0.2-0.5,0-0.7l-3.3-3.3c-0.2-0.2-0.4-0.2-0.6,0
		c-8.4,6.8-14.8,15.9-18.3,26.3c-3.4-10.5-9.9-19.6-18.3-26.3c-0.2-0.1-0.5-0.1-0.6,0l-3.3,3.3c-0.2,0.2-0.2,0.5,0,0.7
		c11.7,9.2,19.3,23.6,19.3,39.8s-7.6,30.5-19.3,39.8c-0.2,0.2-0.2,0.5,0,0.7l3.3,3.3c0.2,0.2,0.4,0.2,0.6,0
		c8.4-6.8,14.8-15.9,18.3-26.3c3.4,10.5,9.9,19.6,18.3,26.3c0.2,0.1,0.5,0.1,0.6,0l3.3-3.3c0.2-0.2,0.2-0.5,0-0.7
		C164.4,473.9,156.8,459.5,156.8,443.4z"/>
</g>
</svg>
